<svg t="1745709724348" class="icon" viewBox="0 0 1024 1024" version="1.1" xmlns="http://www.w3.org/2000/svg" p-id="1728" width="256" height="256"><path d="M146.962963 246.518519A80.592593 80.592593 0 0 1 227.555556 165.925926h75.851851A80.592593 80.592593 0 0 1 384 246.518519v227.555555A80.592593 80.592593 0 0 1 303.407407 554.666667h-75.851851A80.592593 80.592593 0 0 1 146.962963 474.074074V246.518519zM227.555556 213.333333A33.185185 33.185185 0 0 0 194.37037 246.518519v227.555555c0 18.318222 14.866963 33.185185 33.185186 33.185185h75.851851A33.185185 33.185185 0 0 0 336.592593 474.074074V246.518519A33.185185 33.185185 0 0 0 303.407407 213.333333h-75.851851z" p-id="1729" fill="#ffffff"></path><path d="M241.777778 365.037037H170.666667v-47.407407h184.206222v47.407407H289.185185v45.37837a23.703704 23.703704 0 0 1-47.407407 0V365.037037zM241.777778 834.37037V512h47.407407v322.37037a23.703704 23.703704 0 1 1-47.407407 0zM423.291259 189.62963c0-13.084444 10.619259-23.703704 23.703704-23.703704H796.444444A80.592593 80.592593 0 0 1 877.037037 246.518519v341.333333A80.592593 80.592593 0 0 1 796.444444 668.444444H574.312296v142.222223h137.481482a23.703704 23.703704 0 0 1 0 47.407407h-322.370371a23.703704 23.703704 0 1 1 0-47.407407h137.481482v-142.222223h-183.542519a23.703704 23.703704 0 0 1 0-47.407407H796.444444A33.185185 33.185185 0 0 0 829.62963 587.851852V246.518519A33.185185 33.185185 0 0 0 796.444444 213.333333H446.994963c-13.084444 0-23.703704-10.619259-23.703704-23.703703z" p-id="1730" fill="#ffffff"></path></svg>
